<?xml version="1.0" encoding="UTF-8"?>
<svg id="Layer_1" xmlns="http://www.w3.org/2000/svg" version="1.1" viewBox="0 0 1920 1920">
  <!-- Generator: Adobe Illustrator 29.3.1, SVG Export Plug-In . SVG Version: 2.1.0 Build 151)  -->
  <defs>
    <style>
      .st0 {
        fill: #185a8e;
      }

      .st1 {
        fill: #fff;
      }

      .st2 {
        fill: #d11d1c;
      }

      .st3 {
        fill: #165f9c;
      }

      .st4 {
        fill: #131111;
      }

      .st5 {
        fill: #e0231e;
      }

      .st6 {
        fill: #ffba38;
      }

      .st7 {
        fill: #f49d17;
      }
    </style>
  </defs>
  <circle class="st1" cx="961.23" cy="747.03" r="643.46"/>
  <g>
    <g>
      <rect class="st0" x="667.67" y="1231.08" width="350.98" height="23.4"/>
      <rect class="st6" x="1018.65" y="1231.08" width="114.5" height="23.4"/>
      <rect class="st2" x="1133.16" y="1231.08" width="121.64" height="23.4"/>
    </g>
    <g>
      <path class="st3" d="M990.05,1158.94c-10.34-13.17-18.98-24.06-27.5-35.06-19.32-24.95-37.61-50.36-45.32-83.08-7.97-33.83-5.38-64.95,12.6-94.96,20.24-33.76,44.7-62.68,73.21-88.24,25.14-22.55,50.6-45.19,72.85-70.94,33.19-38.43,65.22-78.51,84.2-128.25,6.07-15.91,10.65-32.51,15.79-48.85,1.85-5.9,3.34-11.93,5.13-18.43,12.46,32.03,22.7,63.94,27.55,97.62,2.36,16.35,4.41,32.76,6.59,49.14,1.14,8.55,3.45,17.15,3.17,25.64-1.84,56.02-8.38,110.85-37.48,159.3-10.33,17.21-23.32,31.62-39,42.95-22.12,15.98-45.01,30.76-66.61,47.51-17.8,13.8-34.75,29.08-51.01,45.01-8.27,8.1-15.05,18.47-20.95,28.86-9.6,16.9-14.87,35.49-13.27,55.83.33,4.24.05,8.54.05,15.95Z"/>
      <path class="st7" d="M923.14,1126.72c-13.17-4.52-26.82-7.82-39.41-13.78-54.24-25.67-103.69-59.41-142.73-108.64-19.31-24.36-31.13-52.36-35.12-85.6-3.38-28.19-2.15-55.1,6.12-80.98,8.53-26.7,22.45-50.73,39.76-72.37,18.77-23.46,36.49-47.92,54.68-71.93,21.68-28.61,32.98-62.43,40.43-97.92,4.71-22.44,9.03-45.1,11.53-67.92,3.43-31.36-1.58-61.97-11.39-91.62-1.05-3.16-2.48-6.17-2.75-9.88,28.45,27.67,52.05,59.37,70.89,95.28,5.6,10.68,10.9,21.57,16.83,32.03,11.12,19.61,15.71,41.89,17.26,63.87,1.51,21.3-3.2,42.98-10.58,63.31-16.43,45.29-36.95,88.14-62.68,128.11-11.03,17.14-20.79,35.33-30.17,53.64-19.79,38.63-21.36,79.05-9.39,120.96,12.91,45.18,34.92,84.21,64.42,118.54,7.27,8.46,14.49,16.98,21.74,25.47l.54-.56Z"/>
      <path class="st5" d="M970.71,168.39c-1.56,12.11-3.29,20.53-3.61,29.01-1.27,34.12,10.49,64.25,27.51,91.43,17.23,27.52,36.33,53.76,55.84,79.45,27.62,36.36,56.44,71.61,74.33,115.4,10.93,26.75,18.92,54.24,18.01,83.84-.79,25.64-7.65,49.85-16.89,73.26-15.17,38.42-36.72,72.33-62.6,102.96-31.16,36.88-63.58,72.26-98.45,105.16-21.05,19.86-39.53,43.14-57.99,66-12.84,15.9-21.17,35.02-25.32,56.03-.37,1.88-2.11,3.45-3.37,5.4-9.58-28.36-9.17-43.11-.56-74.93,8.79-32.48,25.99-60.27,40.67-89.42,12.16-24.15,26.25-47.14,38.86-71.03,15.67-29.7,27.34-61.45,32.88-95.1,5.72-34.73-2.19-67.98-16.83-98.85-14.35-30.27-30.46-59.55-45.37-89.51-12.06-24.22-24.13-48.48-35.06-73.32-25.12-57.09-15.92-110.26,18.73-158.71,15.53-21.71,34.94-39.69,59.22-57.08Z"/>
    </g>
  </g>
  <g>
    <path class="st4" d="M445.13,1488.52l-24.76,29.3c-9.08-11.56-22.49-19.19-34.46-19.19-19.61,0-34.46,15.89-34.46,37.15s14.86,37.35,34.46,37.35c11.14,0,24.56-6.6,34.46-16.72l24.76,26.42c-15.68,16.92-39.42,27.86-61.29,27.86-43.96,0-76.36-31.78-76.36-74.5s33.02-73.26,77.8-73.26c21.88,0,45.2,9.91,59.85,25.59Z"/>
    <path class="st4" d="M554.71,1608.83v-53.86h-51.39v53.86h-42.92v-144.67h42.92v57.58h51.39v-57.58h42.93v144.67h-42.93Z"/>
    <path class="st4" d="M663.25,1585.72l-8.67,23.11h-44.16l61.7-144.67h44.16l59.64,144.67h-45.81l-8.46-23.11h-58.4ZM692.97,1507.09l-17.75,47.26h35.08l-17.34-47.26Z"/>
    <path class="st4" d="M892.32,1572.92v35.91h-103.6v-144.67h42.92v108.76h60.67Z"/>
    <path class="st4" d="M1013.04,1572.92v35.91h-103.6v-144.67h42.92v108.76h60.67Z"/>
    <path class="st4" d="M1073.08,1497.19v22.7h68.31v33.02h-68.31v22.91h77.39v33.02h-120.31v-144.67h118.25v33.02h-75.33Z"/>
    <path class="st4" d="M1274.08,1608.83l-61.29-80.48v80.48h-39.42v-144.67h36.73l61.29,80.9v-80.9h39.21v144.67h-36.53Z"/>
    <path class="st4" d="M1468.68,1533.92v58.2c-15.68,10.73-41.27,18.57-61.91,18.57-44.78,0-77.8-31.57-77.8-74.09s34.05-73.67,80.69-73.67c22.08,0,45.81,8.46,61.09,21.88l-24.35,29.51c-9.91-9.49-24.35-15.68-36.94-15.68-20.84,0-36.53,16.3-36.53,37.97s15.89,38.18,36.94,38.18c5.99,0,14.03-2.06,21.88-5.57v-35.29h36.94Z"/>
    <path class="st4" d="M1535.13,1497.19v22.7h68.31v33.02h-68.31v22.91h77.39v33.02h-120.31v-144.67h118.25v33.02h-75.33Z"/>
    <path class="st4" d="M468.45,1815.2l-.21-85.64-29.1,71.4h-28.07l-29.1-71.4v85.64h-37.77v-144.67h46.02l34.88,80.07,34.88-80.07h46.02v144.67h-37.56Z"/>
    <path class="st4" d="M532.62,1815.2v-144.67h42.92v144.67h-42.92Z"/>
    <path class="st4" d="M702.88,1815.2l-61.29-80.48v80.48h-39.42v-144.67h36.73l61.29,80.9v-80.9h39.21v144.67h-36.53Z"/>
    <path class="st4" d="M766.02,1815.2v-144.67h42.92v144.67h-42.92Z"/>
    <path class="st4" d="M955.46,1685.39l-15.89,33.02c-14.86-8.46-35.91-16.1-48.08-16.1-7.22,0-11.97,2.48-11.97,7.84,0,21.26,75.53,8.67,75.53,60.88,0,30.75-27.24,45.4-59.64,45.4-24.56,0-51.39-8.67-69.55-22.91l16.1-32.61c14.86,12.59,39,22.08,53.86,22.08,9.08,0,14.86-3.1,14.86-9.7,0-21.87-75.53-8.05-75.53-59.02,0-27.86,23.73-45.61,59.85-45.61,22.08,0,44.78,6.6,60.47,16.72Z"/>
    <path class="st4" d="M1047.09,1704.79v110.41h-43.13v-110.41h-41.89v-34.26h127.12v34.26h-42.1Z"/>
    <path class="st4" d="M1170.49,1776.19h-22.7v39h-42.93v-144.67h67.48c38.8,0,61.09,18.57,61.09,51.39,0,21.46-8.67,37.15-24.35,46.02l29.3,47.26h-48.7l-19.19-39ZM1172.35,1743.17c12.8,0,20.22-7.02,20.22-20.02s-7.43-19.6-20.22-19.6h-24.56v39.62h24.56Z"/>
    <path class="st4" d="M1256.74,1815.2v-144.67h42.93v144.67h-42.93Z"/>
    <path class="st4" d="M1369.21,1703.55v22.7h68.31v33.02h-68.31v22.91h77.39v33.02h-120.31v-144.67h118.25v33.02h-75.33Z"/>
    <path class="st4" d="M1589.4,1685.39l-15.89,33.02c-14.86-8.46-35.91-16.1-48.08-16.1-7.22,0-11.97,2.48-11.97,7.84,0,21.26,75.53,8.67,75.53,60.88,0,30.75-27.24,45.4-59.64,45.4-24.56,0-51.39-8.67-69.55-22.91l16.1-32.61c14.86,12.59,39,22.08,53.86,22.08,9.08,0,14.86-3.1,14.86-9.7,0-21.87-75.53-8.05-75.53-59.02,0-27.86,23.73-45.61,59.85-45.61,22.08,0,44.78,6.6,60.47,16.72Z"/>
  </g>
</svg>